<svg xmlns="http://www.w3.org/2000/svg" xmlns:xlink="http://www.w3.org/1999/xlink" width="2008" zoomAndPan="magnify" viewBox="0 0 1506 446.25" height="595" preserveAspectRatio="xMidYMid meet" version="1.0"><defs><g/><clipPath id="875b080045"><path d="M 1.261719 30.265625 L 352.785156 30.265625 L 352.785156 427.398438 L 1.261719 427.398438 Z M 1.261719 30.265625 " clip-rule="nonzero"/></clipPath><clipPath id="54967d8289"><rect x="0" width="972" y="0" height="235"/></clipPath><clipPath id="abdfe2b888"><path d="M 448.191406 322.050781 L 1352.578125 322.050781 L 1352.578125 394.742188 L 448.191406 394.742188 Z M 448.191406 322.050781 " clip-rule="nonzero"/></clipPath><clipPath id="5e376218bd"><path d="M 517.167969 394.742188 L 1283.578125 394.742188 L 1352.550781 322.050781 L 448.191406 322.050781 Z M 517.167969 394.742188 " clip-rule="nonzero"/></clipPath><clipPath id="88174506a6"><path d="M 0.191406 0.0507812 L 904.578125 0.0507812 L 904.578125 72.742188 L 0.191406 72.742188 Z M 0.191406 0.0507812 " clip-rule="nonzero"/></clipPath><clipPath id="5d3174af50"><path d="M 69.167969 72.742188 L 835.578125 72.742188 L 904.550781 0.0507812 L 0.191406 0.0507812 Z M 69.167969 72.742188 " clip-rule="nonzero"/></clipPath><clipPath id="3fcb0783ce"><rect x="0" width="905" y="0" height="73"/></clipPath><clipPath id="912276fe6b"><rect x="0" width="284" y="0" height="68"/></clipPath></defs><g clip-path="url(#875b080045)"><path fill="#f10000" d="M 344.324219 389.914062 C 333.753906 412.78125 314.304688 427.382812 289.105469 427.398438 L 288.871094 427.398438 C 284.828125 427.398438 280.621094 426.351562 276.382812 423.984375 C 276.382812 423.984375 259.269531 411.75 247.15625 403.078125 C 227.601562 389.09375 202.644531 380.710938 178.167969 380.941406 L 177.5625 380.941406 C 153.09375 380.710938 128.125 389.09375 108.574219 403.078125 C 96.460938 411.75 79.351562 423.984375 79.351562 423.984375 C 75.109375 426.351562 70.910156 427.398438 66.859375 427.398438 L 66.597656 427.398438 C 48.941406 427.410156 30.816406 420.414062 18.671875 407.597656 C -10.027344 377.324219 3.394531 332.410156 12.285156 313.820312 L 28.082031 284.800781 C 38.0625 266.453125 48.726562 248.492188 60.046875 230.945312 C 81.433594 201.535156 52.214844 152.128906 94.457031 116.289062 L 94.335938 117.199219 C 92.070312 133.960938 97.847656 150.683594 109.566406 162.886719 C 120.578125 174.371094 126.339844 194.21875 126.339844 194.21875 C 126.339844 194.21875 141.984375 189.511719 132.480469 159.25 C 128.257812 145.789062 114.175781 135.582031 115.210938 105.652344 C 116.1875 77.464844 129.078125 53.199219 147.6875 32.652344 C 148.359375 31.914062 148.886719 31.054688 149.5 30.265625 C 143.160156 97.859375 203.601562 105.652344 205.003906 184.726562 C 211.363281 173.679688 215.015625 160.929688 215.015625 147.167969 C 215.015625 137.367188 213.164062 127.054688 209.125 116.472656 C 201.917969 97.597656 203.542969 76.492188 213.960938 59.1875 L 214.453125 58.375 L 214.6875 59.246094 C 220.667969 81.574219 229.585938 102.96875 240.613281 123.289062 C 246.617188 134.347656 249.765625 146.628906 250.964844 160.503906 C 251.082031 160.398438 251.199219 160.296875 251.320312 160.199219 C 260.871094 152.269531 264.265625 139.441406 264.265625 126.710938 C 264.265625 123.191406 264.007812 119.6875 263.542969 116.289062 C 303.695312 150.34375 279.066406 196.648438 294.863281 226.40625 C 294.863281 226.410156 294.867188 226.410156 294.867188 226.410156 C 295.691406 227.964844 296.625 229.46875 297.679688 230.925781 C 297.683594 230.929688 297.6875 230.9375 297.695312 230.945312 C 310.28125 251.1875 341.132812 301.558594 348.035156 320.121094 C 354.261719 336.859375 355.636719 365.441406 344.324219 389.914062 " fill-opacity="1" fill-rule="nonzero"/></g><path fill="#f10000" d="M 297.679688 230.925781 C 296.625 229.46875 295.691406 227.964844 294.867188 226.410156 C 295.652344 227.667969 296.601562 229.183594 297.679688 230.925781 " fill-opacity="1" fill-rule="nonzero"/><path fill="#ffffff" d="M 270.84375 246.71875 C 260.25 236.445312 224.941406 230.25 203.898438 257.40625 C 199.253906 263.390625 186.828125 275.148438 178.820312 275.609375 L 176.90625 275.609375 C 168.90625 275.148438 156.476562 263.390625 151.835938 257.40625 C 130.789062 230.25 95.476562 236.445312 84.886719 246.71875 C 9.515625 319.851562 25.042969 364.816406 25.042969 364.816406 C 24.515625 381.953125 40.929688 405.660156 61.0625 405.660156 C 65.324219 405.660156 69.742188 404.601562 74.207031 402.199219 C 74.207031 402.199219 92.210938 389.773438 104.957031 380.972656 C 125.53125 366.777344 151.800781 358.265625 177.550781 358.5 L 178.183594 358.5 C 203.933594 358.265625 230.195312 366.777344 250.777344 380.972656 C 263.523438 389.773438 281.523438 402.199219 281.523438 402.199219 C 285.988281 404.601562 290.410156 405.660156 294.667969 405.660156 C 314.800781 405.660156 331.21875 381.953125 330.6875 364.816406 C 330.6875 364.816406 346.21875 319.851562 270.84375 246.71875 Z M 263.164062 311.828125 L 256.855469 311.828125 C 252.832031 311.828125 249.570312 308.679688 249.570312 304.796875 C 249.570312 300.917969 252.832031 297.769531 256.855469 297.769531 L 263.164062 297.769531 C 267.183594 297.769531 270.445312 300.917969 270.445312 304.796875 C 270.445312 308.679688 267.183594 311.828125 263.164062 311.828125 Z M 250.765625 323.785156 C 250.765625 327.667969 247.503906 330.8125 243.484375 330.8125 C 239.460938 330.8125 236.199219 327.667969 236.199219 323.785156 L 236.199219 317.703125 C 236.199219 313.816406 239.460938 310.671875 243.484375 310.671875 C 247.503906 310.671875 250.765625 313.816406 250.765625 317.703125 Z M 230.109375 311.828125 L 223.804688 311.828125 C 219.78125 311.828125 216.519531 308.679688 216.519531 304.796875 C 216.519531 300.917969 219.78125 297.769531 223.804688 297.769531 L 230.109375 297.769531 C 234.132812 297.769531 237.394531 300.917969 237.394531 304.796875 C 237.394531 308.679688 234.132812 311.828125 230.109375 311.828125 Z M 236.199219 285.8125 C 236.199219 281.929688 239.460938 278.78125 243.484375 278.78125 C 247.503906 278.78125 250.765625 281.929688 250.765625 285.8125 L 250.765625 291.898438 C 250.765625 295.777344 247.503906 298.925781 243.484375 298.925781 C 239.460938 298.925781 236.199219 295.777344 236.199219 291.898438 Z M 187.730469 334.796875 L 166.066406 334.796875 C 162.042969 334.796875 158.78125 331.652344 158.78125 327.769531 C 158.78125 323.886719 162.042969 320.742188 166.066406 320.742188 L 187.730469 320.742188 C 191.753906 320.742188 195.015625 323.886719 195.015625 327.769531 C 195.015625 331.652344 191.753906 334.796875 187.730469 334.796875 Z M 128.417969 311.421875 L 116.445312 311.421875 L 116.445312 322.972656 C 116.445312 326.851562 113.1875 330 109.160156 330 C 105.136719 330 101.875 326.851562 101.875 322.972656 L 101.875 311.421875 L 89.902344 311.421875 C 85.882812 311.421875 82.621094 308.273438 82.621094 304.394531 C 82.621094 300.511719 85.882812 297.367188 89.902344 297.367188 L 101.875 297.367188 L 101.875 285.8125 C 101.875 281.929688 105.136719 278.78125 109.160156 278.78125 C 113.1875 278.78125 116.445312 281.929688 116.445312 285.8125 L 116.445312 297.367188 L 128.417969 297.367188 C 132.441406 297.367188 135.703125 300.511719 135.703125 304.394531 C 135.703125 308.273438 132.441406 311.421875 128.417969 311.421875 " fill-opacity="1" fill-rule="nonzero"/><g transform="matrix(1, 0, 0, 1, 421, 67)"><g clip-path="url(#54967d8289)"><g fill="#ffffff" fill-opacity="1"><g transform="translate(1.101181, 195.43914)"><g><path d="M 151.703125 0 L 18.671875 0 L 18.671875 -126.03125 L 1.171875 -126.03125 L 1.171875 -163.375 L 151.703125 -163.375 L 175.046875 -140.03125 L 175.046875 -105.03125 L 151.703125 -81.6875 L 175.046875 -58.34375 L 175.046875 -23.34375 Z M 137.703125 -37.34375 L 137.703125 -63.015625 L 56.015625 -63.015625 L 56.015625 -37.34375 Z M 137.703125 -100.359375 L 137.703125 -126.03125 L 56.015625 -126.03125 L 56.015625 -100.359375 Z M 137.703125 -100.359375 "/></g></g></g><g fill="#ffffff" fill-opacity="1"><g transform="translate(199.475994, 195.43914)"><g><path d="M 161.046875 0 L 18.671875 0 L 18.671875 -126.03125 L 1.171875 -126.03125 L 1.171875 -163.375 L 56.015625 -163.375 L 56.015625 -37.34375 L 161.046875 -37.34375 Z M 161.046875 0 "/></g></g></g><g fill="#ffffff" fill-opacity="1"><g transform="translate(374.512724, 195.43914)"><g><path d="M 196.75 0 L 155.90625 0 L 142.609375 -28 L 56.25 -28 L 43.171875 0 L 2.328125 0 L 60.921875 -126.03125 L 43.40625 -126.03125 L 43.40625 -163.375 L 120.421875 -163.375 Z M 125.09375 -65.34375 L 100.125 -126.734375 L 98.484375 -126.734375 L 73.515625 -65.34375 Z M 125.09375 -65.34375 "/></g></g></g><g fill="#ffffff" fill-opacity="1"><g transform="translate(585.256731, 195.43914)"><g><path d="M 71.1875 -37.34375 L 176.203125 -37.34375 L 176.203125 0 L 35.015625 0 L 11.671875 -23.34375 L 11.671875 -41.3125 L 129.53125 -126.03125 L 11.671875 -126.03125 L 11.671875 -163.375 L 152.875 -163.375 L 176.203125 -140.03125 L 176.203125 -114.359375 Z M 71.1875 -37.34375 "/></g></g></g><g fill="#ffffff" fill-opacity="1"><g transform="translate(784.798424, 195.43914)"><g><path d="M 161.046875 0 L 18.671875 0 L 18.671875 -126.03125 L 1.171875 -126.03125 L 1.171875 -163.375 L 161.046875 -163.375 L 161.046875 -126.03125 L 56.015625 -126.03125 L 56.015625 -100.359375 L 137.703125 -100.359375 L 137.703125 -63.015625 L 56.015625 -63.015625 L 56.015625 -37.34375 L 161.046875 -37.34375 Z M 161.046875 0 "/></g></g></g></g></g><g clip-path="url(#abdfe2b888)"><g clip-path="url(#5e376218bd)"><g transform="matrix(1, 0, 0, 1, 448, 322)"><g clip-path="url(#3fcb0783ce)"><g clip-path="url(#88174506a6)"><g clip-path="url(#5d3174af50)"><path fill="#f10000" d="M 0.191406 0.0507812 L 904.578125 0.0507812 L 904.578125 72.742188 L 0.191406 72.742188 Z M 0.191406 0.0507812 " fill-opacity="1" fill-rule="nonzero"/></g></g></g></g></g></g><g transform="matrix(1, 0, 0, 1, 762, 327)"><g clip-path="url(#912276fe6b)"><g fill="#ffffff" fill-opacity="1"><g transform="translate(2.62497, 51.873281)"><g><path d="M 15.90625 0 L 15.90625 -39.34375 L 1.640625 -39.34375 L 1.640625 -47.96875 L 40.015625 -47.96875 L 40.015625 -39.34375 L 25.84375 -39.34375 L 25.84375 0 Z M 15.90625 0 "/></g></g></g><g fill="#ffffff" fill-opacity="1"><g transform="translate(50.802973, 51.873281)"><g><path d="M 10.6875 0 L 5 -5.75 L 5 -42.28125 L 10.6875 -47.96875 L 39.40625 -47.96875 L 45.15625 -42.28125 L 45.15625 -5.75 L 39.40625 0 Z M 14.9375 -10.21875 L 16.453125 -8.640625 L 33.65625 -8.640625 L 35.21875 -10.21875 L 35.21875 -37.765625 L 33.65625 -39.34375 L 16.453125 -39.34375 L 14.9375 -37.765625 Z M 14.9375 -10.21875 "/></g></g></g><g fill="#ffffff" fill-opacity="1"><g transform="translate(107.958144, 51.873281)"><g><path d="M 5.890625 0 L 5.890625 -47.96875 L 40.359375 -47.96875 L 46.125 -42.28125 L 46.125 -21.71875 L 40.359375 -16.03125 L 15.828125 -16.03125 L 15.828125 0 Z M 15.828125 -24.671875 L 34.609375 -24.671875 L 36.1875 -26.25 L 36.1875 -37.765625 L 34.609375 -39.34375 L 15.828125 -39.34375 Z M 15.828125 -24.671875 "/></g></g></g><g fill="#ffffff" fill-opacity="1"><g transform="translate(164.976254, 51.873281)"><g><path d="M 11.65625 0 L 5.890625 -5.75 L 5.890625 -47.96875 L 15.828125 -47.96875 L 15.828125 -10.21875 L 17.40625 -8.640625 L 34.609375 -8.640625 L 36.1875 -10.21875 L 36.1875 -47.96875 L 46.125 -47.96875 L 46.125 -5.75 L 40.359375 0 Z M 11.65625 0 "/></g></g></g><g fill="#ffffff" fill-opacity="1"><g transform="translate(224.050233, 51.873281)"><g><path d="M 5.890625 0 L 5.890625 -47.96875 L 40.359375 -47.96875 L 46.125 -42.28125 L 46.125 -21.71875 L 40.359375 -16.03125 L 15.828125 -16.03125 L 15.828125 0 Z M 15.828125 -24.671875 L 34.609375 -24.671875 L 36.1875 -26.25 L 36.1875 -37.765625 L 34.609375 -39.34375 L 15.828125 -39.34375 Z M 15.828125 -24.671875 "/></g></g></g></g></g></svg>