<svg xmlns="http://www.w3.org/2000/svg" xmlns:xlink="http://www.w3.org/1999/xlink" width="2000" zoomAndPan="magnify" viewBox="0 0 1500 1499.999933" height="2000" preserveAspectRatio="xMidYMid meet" version="1.0"><defs><clipPath id="035052ca8b"><path d="M 235.523438 168.773438 L 1264.433594 168.773438 L 1264.433594 1331.171875 L 235.523438 1331.171875 Z M 235.523438 168.773438 " clip-rule="nonzero"/></clipPath></defs><g clip-path="url(#035052ca8b)"><path fill="#f10000" d="M 1239.667969 1221.460938 C 1208.722656 1288.398438 1151.792969 1331.136719 1078.039062 1331.179688 L 1077.355469 1331.179688 C 1065.515625 1331.179688 1053.203125 1328.121094 1040.796875 1321.1875 C 1040.796875 1321.1875 990.714844 1285.375 955.253906 1260 C 898.015625 1219.070312 824.964844 1194.53125 753.324219 1195.199219 L 751.550781 1195.199219 C 679.929688 1194.53125 606.847656 1219.070312 549.621094 1260 C 514.167969 1285.375 464.085938 1321.1875 464.085938 1321.1875 C 451.671875 1328.121094 439.378906 1331.179688 427.519531 1331.179688 L 426.753906 1331.179688 C 375.074219 1331.21875 322.03125 1310.738281 286.476562 1273.226562 C 202.480469 1184.613281 241.757812 1053.148438 267.789062 998.738281 L 314.019531 913.796875 C 343.238281 860.097656 374.449219 807.523438 407.582031 756.164062 C 470.175781 670.082031 384.652344 525.46875 508.304688 420.5625 L 507.949219 423.222656 C 501.320312 472.292969 518.226562 521.238281 552.527344 556.960938 C 584.757812 590.566406 601.628906 648.664062 601.628906 648.664062 C 601.628906 648.664062 647.410156 634.882812 619.597656 546.316406 C 607.234375 506.90625 566.015625 477.035156 569.046875 389.429688 C 571.910156 306.929688 609.636719 235.898438 664.109375 175.765625 C 666.070312 173.597656 667.621094 171.078125 669.417969 168.773438 C 650.855469 366.621094 827.761719 389.429688 831.875 620.882812 C 850.492188 588.542969 861.179688 551.230469 861.179688 510.953125 C 861.179688 482.257812 855.757812 452.070312 843.933594 421.101562 C 822.839844 365.851562 827.59375 304.082031 858.09375 253.425781 L 859.53125 251.050781 L 860.214844 253.597656 C 877.71875 318.957031 903.820312 381.574219 936.105469 441.058594 C 953.679688 473.417969 962.886719 509.371094 966.402344 549.976562 C 966.742188 549.675781 967.085938 549.375 967.445312 549.09375 C 995.394531 525.882812 1005.328125 488.335938 1005.328125 451.074219 C 1005.328125 440.769531 1004.570312 430.511719 1003.222656 420.5625 C 1120.742188 520.242188 1048.652344 655.78125 1094.890625 742.882812 C 1094.890625 742.894531 1094.910156 742.894531 1094.910156 742.894531 C 1097.3125 747.4375 1100.046875 751.847656 1103.132812 756.101562 C 1103.144531 756.117188 1103.160156 756.144531 1103.175781 756.164062 C 1140.023438 815.40625 1230.328125 962.84375 1250.527344 1017.183594 C 1268.757812 1066.167969 1272.78125 1149.828125 1239.667969 1221.460938 " fill-opacity="1" fill-rule="nonzero"/></g><path fill="#f10000" d="M 1103.132812 756.101562 C 1100.046875 751.847656 1097.3125 747.4375 1094.910156 742.894531 C 1097.195312 746.570312 1099.976562 751.007812 1103.132812 756.101562 " fill-opacity="1" fill-rule="nonzero"/><path fill="#ffffff" d="M 1024.589844 802.335938 C 993.574219 772.265625 890.226562 754.128906 828.632812 833.609375 C 815.046875 851.136719 778.667969 885.550781 755.234375 886.890625 L 749.632812 886.890625 C 726.214844 885.550781 689.835938 851.136719 676.253906 833.609375 C 614.644531 754.128906 511.289062 772.265625 480.292969 802.335938 C 259.675781 1016.390625 305.128906 1148.003906 305.128906 1148.003906 C 303.578125 1198.160156 351.632812 1267.558594 410.558594 1267.558594 C 423.027344 1267.558594 435.964844 1264.453125 449.03125 1257.421875 C 449.03125 1257.421875 501.726562 1221.058594 539.03125 1195.296875 C 599.25 1153.742188 676.140625 1128.832031 751.511719 1129.519531 L 753.371094 1129.519531 C 828.746094 1128.832031 905.613281 1153.742188 965.851562 1195.296875 C 1003.15625 1221.058594 1055.851562 1257.421875 1055.851562 1257.421875 C 1068.917969 1264.453125 1081.855469 1267.558594 1094.324219 1267.558594 C 1153.25 1267.558594 1201.304688 1198.160156 1199.753906 1148.003906 C 1199.753906 1148.003906 1245.207031 1016.390625 1024.589844 802.335938 Z M 1002.101562 992.90625 L 983.640625 992.90625 C 971.863281 992.90625 962.324219 983.695312 962.324219 972.332031 C 962.324219 960.976562 971.863281 951.765625 983.640625 951.765625 L 1002.101562 951.765625 C 1013.878906 951.765625 1023.417969 960.976562 1023.417969 972.332031 C 1023.417969 983.695312 1013.878906 992.90625 1002.101562 992.90625 Z M 965.816406 1027.910156 C 965.816406 1039.265625 956.273438 1048.480469 944.5 1048.480469 C 932.726562 1048.480469 923.183594 1039.265625 923.183594 1027.910156 L 923.183594 1010.097656 C 923.183594 998.726562 932.726562 989.527344 944.5 989.527344 C 956.273438 989.527344 965.816406 998.726562 965.816406 1010.097656 Z M 905.359375 992.90625 L 886.898438 992.90625 C 875.121094 992.90625 865.582031 983.695312 865.582031 972.332031 C 865.582031 960.976562 875.121094 951.765625 886.898438 951.765625 L 905.359375 951.765625 C 917.136719 951.765625 926.675781 960.976562 926.675781 972.332031 C 926.675781 983.695312 917.136719 992.90625 905.359375 992.90625 Z M 923.183594 916.757812 C 923.183594 905.398438 932.726562 896.183594 944.5 896.183594 C 956.273438 896.183594 965.816406 905.398438 965.816406 916.757812 L 965.816406 934.570312 C 965.816406 945.933594 956.273438 955.136719 944.5 955.136719 C 932.726562 955.136719 923.183594 945.933594 923.183594 934.570312 Z M 781.320312 1060.136719 L 717.902344 1060.136719 C 706.125 1060.136719 696.582031 1050.933594 696.582031 1039.570312 C 696.582031 1028.207031 706.125 1019.003906 717.902344 1019.003906 L 781.320312 1019.003906 C 793.09375 1019.003906 802.636719 1028.207031 802.636719 1039.570312 C 802.636719 1050.933594 793.09375 1060.136719 781.320312 1060.136719 Z M 607.707031 991.714844 L 572.660156 991.714844 L 572.660156 1025.523438 C 572.660156 1036.886719 563.121094 1046.097656 551.335938 1046.097656 C 539.558594 1046.097656 530.019531 1036.886719 530.019531 1025.523438 L 530.019531 991.714844 L 494.972656 991.714844 C 483.203125 991.714844 473.65625 982.507812 473.65625 971.148438 C 473.65625 959.785156 483.203125 950.578125 494.972656 950.578125 L 530.019531 950.578125 L 530.019531 916.757812 C 530.019531 905.398438 539.558594 896.183594 551.335938 896.183594 C 563.121094 896.183594 572.660156 905.398438 572.660156 916.757812 L 572.660156 950.578125 L 607.707031 950.578125 C 619.484375 950.578125 629.027344 959.785156 629.027344 971.148438 C 629.027344 982.507812 619.484375 991.714844 607.707031 991.714844 " fill-opacity="1" fill-rule="nonzero"/></svg>